<svg width="110" height="26" viewBox="0 0 110 26" fill="none" xmlns="http://www.w3.org/2000/svg">
<rect width="110" height="26" fill="#28A055"/>
<path d="M31 14.9555V5.02599H35.8429V14.7476C35.8429 17.113 36.4188 18.2567 38.4869 18.2567C40.4764 18.2567 41.1309 17.191 41.1309 14.6696V5H46V14.8776C46 19.7384 43.1204 21.9998 38.4869 21.9998C33.7225 22.0258 31 19.6344 31 14.9555Z" fill="white"/>
<path d="M48 16.1446H52.5709C52.7015 17.3916 53.2239 18.4217 55.2351 18.4217C56.6194 18.4217 57.403 17.7169 57.403 16.6867C57.403 15.6024 56.7761 15.3313 54.7388 15.006C49.9851 14.4096 48.3918 12.9458 48.3918 9.44879C48.3918 6.30421 50.8731 4 54.8955 4C58.944 4 61.2164 5.76205 61.5299 9.44879H57.0634C56.9067 8.20181 56.2276 7.57831 54.8955 7.57831C53.6157 7.57831 52.9366 8.1747 52.9366 9.06928C52.9366 10.0452 53.459 10.4789 55.5485 10.7771C59.806 11.2651 62 12.4036 62 16.1988C62 19.3976 59.5448 22 55.2351 22C50.5597 21.9729 48.1567 19.9127 48 16.1446Z" fill="white"/>
<path d="M64 5H69.03L72.316 16.9502L75.6272 5H80L74.6919 22H69.3839L64 5Z" fill="white"/>
</svg>
